# xmcd
#
# Track frame offsets:
# 150
# 30578
# 54235
# 75281
# 97738
# 116750
# 135959
# 154790
# 193295
# 216732
# 236266
#
# Disc length: 3750 seconds
#
#
# Revision: 0
# Processed by: cddbd v1.5.1PL0 Copyright (c) Steve Scherf et al.
# Submitted via: FreeRIP 2.90 
#
DISCID=850ea40b
DTITLE=Natu Nobilis Blues Festival 2002
DYEAR=2002
DGENRE=Blues
TTITLE0=A Tribute To A King - Blue Jeans
TTITLE1=Gravel Road - Magic Slim and The Teardrops
TTITLE2=If You Love Like You Say - Natu Nobilis Blues Band
TTITLE3=Killing Floor - Hubert Sumlin and André Cristovam Trio
TTITLE4=Suzie Q - Nasi and Os Irmãos do Blues
TTITLE5=I´m Going Out - Hoochie Coochie Band
TTITLE6=Pissed Off - Mister Jack
TTITLE7=The Sky Is Crying and Big Time Sarah and Blue Jeans
TTITLE8=Last Night Taking You Downtown - Carey Bell and Natu Nobilis Blues Band
TTITLE9=Casting My Spell - Coco Montoya
TTITLE10=Who´s Been Talking - Hubert Sumlin and André Cristovam Trio
EXTD=
EXTT0=
EXTT1=
EXTT2=
EXTT3=
EXTT4=
EXTT5=
EXTT6=
EXTT7=
EXTT8=
EXTT9=
EXTT10=
PLAYORDER=
